<svg height="16" width="16" xmlns="http://www.w3.org/2000/svg"><path d="m.66666673 4c-.36933343 0-.66666673.2973332-.66666673.6666666v6.6666654c0 .369333.2973333.666666.66666673.666666h.66666667c.3693333 0 .6666667-.297333.6666667-.666666v-2.5585937l5.0273441 3.1419267c.092838.049043.1936893.083335.3059894.083335.36819 0 .6666666-.298476.6666666-.666666v-2.5807311l5.0273438 3.1640621c.09284.049043.19369.083335.30599.083335.368189 0 .666666-.298476.666666-.666666v-6.6666674c0-.3681898-.298477-.6666666-.666666-.6666666-.1123 0-.213152.034291-.30599.083333l-5.0273438 3.1640623v-2.5807287c0-.3681898-.2984766-.6666666-.6666666-.6666666-.1123001 0-.2131513.034291-.3059894.0833329l-5.0273441 3.141927v-2.5585933c0-.3693334-.2973334-.6666666-.6666667-.6666666z" fill="#555761"/></svg>