<?xml version="1.0" encoding="UTF-8"?>
<!DOCTYPE svg PUBLIC "-//W3C//DTD SVG 1.1//EN" "http://www.w3.org/Graphics/SVG/1.1/DTD/svg11.dtd">
<svg xmlns="http://www.w3.org/2000/svg" version="1.1" width="107px" height="105px" style="shape-rendering:geometricPrecision; text-rendering:geometricPrecision; image-rendering:optimizeQuality; fill-rule:evenodd; clip-rule:evenodd" xmlns:xlink="http://www.w3.org/1999/xlink">
<g><path style="opacity:1" fill="#e3e3e3" d="M -0.5,-0.5 C 35.1667,-0.5 70.8333,-0.5 106.5,-0.5C 106.5,34.5 106.5,69.5 106.5,104.5C 70.8333,104.5 35.1667,104.5 -0.5,104.5C -0.5,69.5 -0.5,34.5 -0.5,-0.5 Z"/></g>
<g><path style="opacity:1" fill="#f3f3f3" d="M 59.5,21.5 C 56.8559,21.1601 54.5225,21.8267 52.5,23.5C 51.5832,22.8728 50.5832,22.5394 49.5,22.5C 49.6107,21.8826 49.944,21.3826 50.5,21C 53.6965,20.1955 56.6965,20.3622 59.5,21.5 Z"/></g>
<g><path style="opacity:1" fill="#f9f9f9" d="M 59.5,21.5 C 64.4875,22.1615 68.8208,24.1615 72.5,27.5C 73.6036,31.1555 75.6036,34.1555 78.5,36.5C 78.5569,37.609 78.8902,38.609 79.5,39.5C 79.7787,44.5947 79.4454,49.5947 78.5,54.5C 76.983,55.7349 75.3163,55.7349 73.5,54.5C 74.4439,44.7416 71.2773,36.7416 64,30.5C 61.4762,29.8957 58.9762,29.229 56.5,28.5C 55.6672,42.4881 55.1672,56.4881 55,70.5C 51.6064,80.1205 44.7731,83.9538 34.5,82C 25.983,77.828 22.8163,70.9947 25,61.5C 29.8606,54.0423 36.6939,51.3756 45.5,53.5C 45.56,54.0431 45.8933,54.3764 46.5,54.5C 47.2356,43.8176 47.9023,33.1509 48.5,22.5C 48.8333,22.5 49.1667,22.5 49.5,22.5C 50.5832,22.5394 51.5832,22.8728 52.5,23.5C 54.5225,21.8267 56.8559,21.1601 59.5,21.5 Z"/></g>
<g><path style="opacity:1" fill="#ebebeb" d="M 48.5,22.5 C 47.9023,33.1509 47.2356,43.8176 46.5,54.5C 45.8933,54.3764 45.56,54.0431 45.5,53.5C 46.33,44.0087 46.83,34.342 47,24.5C 47.2784,23.5842 47.7784,22.9175 48.5,22.5 Z"/></g>
<g><path style="opacity:1" fill="#f1f1f1" d="M 72.5,27.5 C 74.5497,29.2368 76.383,31.2368 78,33.5C 78.4828,34.448 78.6495,35.448 78.5,36.5C 75.6036,34.1555 73.6036,31.1555 72.5,27.5 Z"/></g>
<g><path style="opacity:1" fill="#ededed" d="M 79.5,39.5 C 80.1638,41.8097 80.4971,44.3097 80.5,47C 80.4752,49.9294 79.8086,52.4294 78.5,54.5C 79.4454,49.5947 79.7787,44.5947 79.5,39.5 Z"/></g>
<g><path style="opacity:1" fill="#e3e3e3" d="M 45.5,62.5 C 46.388,65.0545 46.7214,67.7212 46.5,70.5C 45.8902,71.391 45.5569,72.391 45.5,73.5C 40.7392,75.2491 36.4059,74.5824 32.5,71.5C 31.0203,62.8149 34.687,59.3149 43.5,61C 44.4158,61.2784 45.0825,61.7784 45.5,62.5 Z"/></g>
<g><path style="opacity:1" fill="#eeeeee" d="M 45.5,62.5 C 46.7479,63.3339 47.4146,64.6672 47.5,66.5C 47.4892,68.0451 47.1558,69.3784 46.5,70.5C 46.7214,67.7212 46.388,65.0545 45.5,62.5 Z"/></g>
<g><path style="opacity:1" fill="#f2f2f2" d="M 32.5,71.5 C 36.4059,74.5824 40.7392,75.2491 45.5,73.5C 44.3064,74.7773 42.6397,75.4439 40.5,75.5C 38.8333,75.3333 37.1667,75.1667 35.5,75C 33.5743,74.5776 32.5743,73.4109 32.5,71.5 Z"/></g>
</svg>
